# xmcd
#
# Track frame offsets:
#	150
#	13497
#	19774
#	33938
#	48012
#	61066
#	75987
#	81135
#	93881
#	107207
#	121050
#	134636
#	139171
#	152742
#	165778
#	172672
#	185896
#	198426
#	213415
#
# Disc length: 3034 seconds
#
# Revision: 0
# Processed by: cddbd v1.5.2PL0 Copyright (c) Steve Scherf et al.
# Submitted via: audiograbber 1.83.01
#
DISCID=ed0bd813
DTITLE=Various Artist - Berghütten Musi
DYEAR=2009
DGENRE=Folklore
TTITLE0=Kurt Kümpel - Maultrommelwalzer
TTITLE1=Johann Haas - Alphorn-Jodler (Version 1)
TTITLE2=Lerchenauer Blasmusik - Auf der Schwarztann-Alm
TTITLE3=Kreuther Klarinettenmusik - Halbwalzer in B
TTITLE4=Akkordeon Ensemble Georg Schwenk - Die Penny Whistler spielen auf
TTITLE5=Ragnhild Kopp - Halbwalzer in G
TTITLE6=Musikgruppe Kerber - Allgäuer Bläserjodler
TTITLE7=Lerchenauer Blasmusik - Hans bleib da
TTITLE8=Kurt Kümpel - Die Penny Whistler kommen
TTITLE9=Rudi Knabl - Silberdisteln
TTITLE10=Kurt Kümpel - Fahrt ins Grüne
TTITLE11=Johann Haas - Alphorn-Jodler (Version 2)
TTITLE12=Kurt Kümpel - Rund um die Insel
TTITLE13=Kurt Kümpel - Hot Penny Whistler 
TTITLE14=Markus Kerber - Haflinger Raffele-Galopp
TTITLE15=Kurt Kümpel - Flott unterwegs
TTITLE16=Kreuther Klarinettenmusik - Boarischer
TTITLE17=Kreuther Klarinettenmusik - Halbwalzer vom Guggensepp
TTITLE18=Lerchenauer Blasmusik - Im Steyrerland
EXTD=
EXTT0=
EXTT1=
EXTT2=
EXTT3=
EXTT4=
EXTT5=
EXTT6=
EXTT7=
EXTT8=
EXTT9=
EXTT10=
EXTT11=
EXTT12=
EXTT13=
EXTT14=
EXTT15=
EXTT16=
EXTT17=
EXTT18=
PLAYORDER=
